<?xml version="1.0" encoding="UTF-8" standalone="no"?>
<!-- Created with Inkscape (http://www.inkscape.org/) -->

<svg
   xmlns:dc="http://purl.org/dc/elements/1.1/"
   xmlns:cc="http://creativecommons.org/ns#"
   xmlns:rdf="http://www.w3.org/1999/02/22-rdf-syntax-ns#"
   xmlns:svg="http://www.w3.org/2000/svg"
   xmlns="http://www.w3.org/2000/svg"
   xmlns:xlink="http://www.w3.org/1999/xlink"
   xmlns:sodipodi="http://sodipodi.sourceforge.net/DTD/sodipodi-0.dtd"
   xmlns:inkscape="http://www.inkscape.org/namespaces/inkscape"
   width="744.09448819"
   height="1052.3622047"
   id="svg2"
   version="1.1"
   inkscape:version="0.48.4 r9939"
   sodipodi:docname="orm_col.svg">
  <defs
     id="defs4" />
  <sodipodi:namedview
     id="base"
     pagecolor="#ffffff"
     bordercolor="#666666"
     borderopacity="1.0"
     inkscape:pageopacity="0.0"
     inkscape:pageshadow="2"
     inkscape:zoom="0.7"
     inkscape:cx="509.44812"
     inkscape:cy="546.49852"
     inkscape:document-units="px"
     inkscape:current-layer="g3010"
     showgrid="false"
     inkscape:window-width="1530"
     inkscape:window-height="925"
     inkscape:window-x="203"
     inkscape:window-y="63"
     inkscape:window-maximized="0"
     showguides="true"
     inkscape:guide-bbox="true">
    <sodipodi:guide
       orientation="1,0"
       position="405.71429,134.28571"
       id="guide3773" />
    <sodipodi:guide
       orientation="0,1"
       position="801.42857,510"
       id="guide3775" />
  </sodipodi:namedview>
  <metadata
     id="metadata7">
    <rdf:RDF>
      <cc:Work
         rdf:about="">
        <dc:format>image/svg+xml</dc:format>
        <dc:type
           rdf:resource="http://purl.org/dc/dcmitype/StillImage" />
        <dc:title />
      </cc:Work>
    </rdf:RDF>
  </metadata>
  <g
     inkscape:label="Layer 1"
     inkscape:groupmode="layer"
     id="layer1">
    <g
       id="g3010">
      <path
         transform="matrix(1.0686205,0,0,1.0686205,-66.0053,-60.830446)"
         d="m 694.28571,563.79077 a 252.85715,248.57143 0 1 1 -505.7143,0 252.85715,248.57143 0 1 1 505.7143,0 z"
         sodipodi:ry="248.57143"
         sodipodi:rx="252.85715"
         sodipodi:cy="563.79077"
         sodipodi:cx="441.42856"
         id="path2985-4"
         style="fill:#75890c;stroke:#000000;stroke-width:2.50000000000000000;stroke-miterlimit:4;stroke-opacity:1;stroke-dasharray:none;fill-opacity:1"
         sodipodi:type="arc" />
      <path
         transform="matrix(1.0400286,0,0,1.0400286,-53.384048,-44.710624)"
         d="m 694.28571,563.79077 a 252.85715,248.57143 0 1 1 -505.7143,0 252.85715,248.57143 0 1 1 505.7143,0 z"
         sodipodi:ry="248.57143"
         sodipodi:rx="252.85715"
         sodipodi:cy="563.79077"
         sodipodi:cx="441.42856"
         id="path2985"
         style="fill:#ededed;stroke:#000000;stroke-width:2.50000000000000000;stroke-miterlimit:4;stroke-opacity:1;stroke-dasharray:none;fill-opacity:1"
         sodipodi:type="arc" />
      <path
         transform="matrix(0.87615501,0,0,0.89700825,18.954431,35.922925)"
         d="m 694.28571,563.79077 a 252.85715,248.57143 0 1 1 -505.7143,0 252.85715,248.57143 0 1 1 505.7143,0 z"
         sodipodi:ry="248.57143"
         sodipodi:rx="252.85715"
         sodipodi:cy="563.79077"
         sodipodi:cx="441.42856"
         id="path2985-7"
         style="fill:none;stroke:none"
         sodipodi:type="arc" />
      <g
         id="g3765"
         transform="matrix(0.93789776,0,0,0.93789776,25.338617,34.176094)">
        <path
           sodipodi:type="arc"
           style="fill:#75890c;fill-opacity:1;stroke:#000000;stroke-width:2.82001424;stroke-miterlimit:4;stroke-opacity:1;stroke-dasharray:none"
           id="path2985-7-2"
           sodipodi:cx="441.42856"
           sodipodi:cy="563.79077"
           sodipodi:rx="252.85715"
           sodipodi:ry="248.57143"
           d="m 694.28571,563.79077 c 0,137.28221 -113.20801,248.57143 -252.85715,248.57143 -139.64915,0 -252.85715,-111.28922 -252.85715,-248.57143 0,-137.28221 113.208,-248.57142 252.85715,-248.57142 139.64914,0 252.85715,111.28921 252.85715,248.57142 z"
           transform="matrix(0.85940834,0,0,0.87986299,26.346893,44.160685)" />
        <path
           sodipodi:type="arc"
           style="fill:none;stroke:#ffffff;stroke-width:4.81094503;stroke-miterlimit:4;stroke-opacity:1;stroke-dasharray:none"
           id="path2985-7-0"
           sodipodi:cx="441.42856"
           sodipodi:cy="563.79077"
           sodipodi:rx="252.85715"
           sodipodi:ry="248.57143"
           d="m 694.28571,563.79077 c 0,137.28221 -113.20801,248.57143 -252.85715,248.57143 -139.64915,0 -252.85715,-111.28922 -252.85715,-248.57143 0,-137.28221 113.208,-248.57142 252.85715,-248.57142 139.64914,0 252.85715,111.28921 252.85715,248.57142 z"
           transform="matrix(0.34088276,0,0,0.79216233,255.23889,95.034089)" />
        <path
           sodipodi:type="arc"
           style="fill:none;stroke:#ffffff;stroke-width:4.81094503;stroke-miterlimit:4;stroke-opacity:1;stroke-dasharray:none"
           id="path2985-7-0-3"
           sodipodi:cx="441.42856"
           sodipodi:cy="563.79077"
           sodipodi:rx="252.85715"
           sodipodi:ry="248.57143"
           d="m 694.28571,563.79077 c 0,137.28221 -113.20801,248.57143 -252.85715,248.57143 -139.64915,0 -252.85715,-111.28922 -252.85715,-248.57143 0,-137.28221 113.208,-248.57142 252.85715,-248.57142 139.64914,0 252.85715,111.28921 252.85715,248.57142 z"
           transform="matrix(0,0.34088276,-0.79216233,0,852.32809,391.17251)" />
        <path
           sodipodi:type="arc"
           style="fill:none;stroke:#ffffff;stroke-width:4.81094503;stroke-miterlimit:4;stroke-opacity:1;stroke-dasharray:none"
           id="path2985-7-0-3-1"
           sodipodi:cx="441.42856"
           sodipodi:cy="563.79077"
           sodipodi:rx="252.85715"
           sodipodi:ry="248.57143"
           d="m 694.28571,563.79077 c 0,137.28221 -113.20801,248.57143 -252.85715,248.57143 -139.64915,0 -252.85715,-111.28922 -252.85715,-248.57143 0,-137.28221 113.208,-248.57142 252.85715,-248.57142 139.64914,0 252.85715,111.28921 252.85715,248.57142 z"
           transform="matrix(0.24104051,0.24104051,-0.56014336,0.56014336,615.11577,119.44208)" />
        <path
           sodipodi:type="arc"
           style="fill:none;stroke:#ffffff;stroke-width:4.81094503;stroke-miterlimit:4;stroke-opacity:1;stroke-dasharray:none"
           id="path2985-7-0-3-1-3"
           sodipodi:cx="441.42856"
           sodipodi:cy="563.79077"
           sodipodi:rx="252.85715"
           sodipodi:ry="248.57143"
           d="m 694.28571,563.79077 c 0,137.28221 -113.20801,248.57143 -252.85715,248.57143 -139.64915,0 -252.85715,-111.28922 -252.85715,-248.57143 0,-137.28221 113.208,-248.57142 252.85715,-248.57142 139.64914,0 252.85715,111.28921 252.85715,248.57142 z"
           transform="matrix(0.24104051,-0.24104051,0.56014336,0.56014336,-16.491548,332.24641)" />
        <path
           sodipodi:type="arc"
           style="fill:#b3d05b;fill-opacity:1;stroke:#000000;stroke-width:2.5;stroke-miterlimit:4;stroke-opacity:1;stroke-dasharray:none"
           id="path3847"
           sodipodi:cx="383.57144"
           sodipodi:cy="548.79077"
           sodipodi:rx="26.428572"
           sodipodi:ry="26.428572"
           d="m 410.00001,548.79077 c 0,14.5961 -11.83247,26.42857 -26.42857,26.42857 -14.5961,0 -26.42857,-11.83247 -26.42857,-26.42857 0,-14.5961 11.83247,-26.42857 26.42857,-26.42857 14.5961,0 26.42857,11.83247 26.42857,26.42857 z"
           transform="translate(22.142833,-7.1428727)" />
      </g>
      <text
         transform="matrix(-0.99052332,-0.23125181,0.23393214,-0.97293053,682.49469,1167.5295)"
         sodipodi:linespacing="125%"
         id="text3849"
         style="font-size:40px;font-style:normal;font-weight:normal;line-height:125%;letter-spacing:0px;word-spacing:0px;fill:#605a5a;fill-opacity:1;stroke:none;font-family:Sans"
         xml:space="preserve"
         x="395.45322"
         y="0"><textPath
           style="font-size:35.78846359px;font-style:normal;font-variant:normal;font-weight:500;font-stretch:normal;text-align:start;letter-spacing:1.50112712px;word-spacing:0.05964744px;text-anchor:start;fill:#605a5a;fill-opacity:1;stroke:none;font-family:Crillee;-inkscape-font-specification:Crillee Medium"
           id="textPath3857"
           xlink:href="#path2985-7"
           dx="0.0099999998">OPEN RADIATION MONITORING</textPath></text>
      <text
         transform="matrix(0.94927309,-0.31445287,0.31445287,0.94927309,-150.15219,148.5163)"
         sodipodi:linespacing="125%"
         id="text3853"
         style="font-size:40px;font-style:normal;font-weight:normal;line-height:125%;letter-spacing:0px;word-spacing:0px;fill:#575757;fill-opacity:1;stroke:none;font-family:Sans"
         xml:space="preserve"><textPath
           style="font-style:normal;font-variant:normal;font-weight:normal;font-stretch:normal;fill:#575757;fill-opacity:1;font-family:Bitstream Charter;-inkscape-font-specification:Bitstream Charter"
           id="textPath3925"
           xlink:href="#path2985-1">SCIENTIA PRAESIDIUM OMNI EST</textPath></text>
      <path
         inkscape:connector-curvature="0"
         id="path2985-1"
         d="m 152.87053,543.92176 c 0.76027,136.61844 113.63053,247.14967 252.7901,247.17987 139.15946,0.03 252.07766,-110.45212 252.89739,-247.07009 l -505.68749,-0.10978 z"
         style="fill:none;stroke:none" />
    </g>
  </g>
</svg>
