<?xml version="1.0" encoding="UTF-8" standalone="no"?>
<!-- Created with Inkscape (http://www.inkscape.org/) -->

<svg
   xmlns:dc="http://purl.org/dc/elements/1.1/"
   xmlns:cc="http://creativecommons.org/ns#"
   xmlns:rdf="http://www.w3.org/1999/02/22-rdf-syntax-ns#"
   xmlns:svg="http://www.w3.org/2000/svg"
   xmlns="http://www.w3.org/2000/svg"
   xmlns:xlink="http://www.w3.org/1999/xlink"
   xmlns:sodipodi="http://sodipodi.sourceforge.net/DTD/sodipodi-0.dtd"
   xmlns:inkscape="http://www.inkscape.org/namespaces/inkscape"
   width="1000"
   height="1000"
   id="svg3777"
   version="1.1"
   inkscape:version="0.48.4 r9939"
   sodipodi:docname="orm_new_dark_web.svg">
  <defs
     id="defs3779">
    <linearGradient
       id="linearGradient4445">
      <stop
         style="stop-color:#75890c;stop-opacity:1;"
         offset="0"
         id="stop4447" />
      <stop
         style="stop-color:#98b600;stop-opacity:1;"
         offset="1"
         id="stop4449" />
    </linearGradient>
    <linearGradient
       inkscape:collect="always"
       xlink:href="#linearGradient6600"
       id="linearGradient4451"
       x1="424.25592"
       y1="259.19894"
       x2="424.5"
       y2="629.30817"
       gradientUnits="userSpaceOnUse" />
    <path
       inkscape:connector-curvature="0"
       id="path2985-1"
       d="m 24.299101,782.49319 c 0.76027,136.61844 113.630529,247.14971 252.790099,247.17991 139.15946,0.03 252.07766,-110.45216 252.89739,-247.07013 L 24.299101,782.49319 z"
       style="fill:none;stroke:none" />
    <linearGradient
       inkscape:collect="always"
       xlink:href="#linearGradient12338"
       id="linearGradient12413"
       x1="379.42377"
       y1="441.78204"
       x2="378.37332"
       y2="625.42761"
       gradientUnits="userSpaceOnUse" />
    <linearGradient
       id="linearGradient12338">
      <stop
         style="stop-color:#ffffff;stop-opacity:1;"
         offset="0"
         id="stop12340" />
      <stop
         style="stop-color:#c8c8c8;stop-opacity:1;"
         offset="1"
         id="stop12342" />
    </linearGradient>
    <path
       style="fill:none;stroke:none"
       d="m 167.7671,669.99779 c 18.5635,-272.30416 405.54882,-269.3808 426.91734,0"
       id="path11687"
       inkscape:connector-curvature="0"
       sodipodi:nodetypes="cc" />
    <linearGradient
       inkscape:collect="always"
       xlink:href="#linearGradient12338"
       id="linearGradient6486"
       x1="379.42377"
       y1="441.78204"
       x2="378.37332"
       y2="625.42761"
       gradientUnits="userSpaceOnUse" />
    <linearGradient
       id="linearGradient6488">
      <stop
         style="stop-color:#ffffff;stop-opacity:1;"
         offset="0"
         id="stop6490" />
      <stop
         style="stop-color:#c8c8c8;stop-opacity:1;"
         offset="1"
         id="stop6492" />
    </linearGradient>
    <linearGradient
       y2="683.36157"
       x2="380.77097"
       y1="441.78204"
       x1="380.77097"
       gradientUnits="userSpaceOnUse"
       id="linearGradient6496"
       xlink:href="#linearGradient12338"
       inkscape:collect="always" />
    <linearGradient
       y2="683.36157"
       x2="380.77097"
       y1="441.78204"
       x1="380.77097"
       gradientUnits="userSpaceOnUse"
       id="linearGradient6496-0"
       xlink:href="#linearGradient12338-9"
       inkscape:collect="always" />
    <linearGradient
       id="linearGradient12338-9">
      <stop
         style="stop-color:#ffffff;stop-opacity:1;"
         offset="0"
         id="stop12340-5" />
      <stop
         style="stop-color:#c8c8c8;stop-opacity:1;"
         offset="1"
         id="stop12342-7" />
    </linearGradient>
    <path
       style="fill:none;stroke:none"
       d="m 167.7671,669.99779 c 18.5635,-272.30416 405.54882,-269.3808 426.91734,0"
       id="path11687-3"
       inkscape:connector-curvature="0"
       sodipodi:nodetypes="cc" />
    <linearGradient
       y2="683.36157"
       x2="380.77097"
       y1="441.78204"
       x1="380.77097"
       gradientUnits="userSpaceOnUse"
       id="linearGradient6542"
       xlink:href="#linearGradient12338-9"
       inkscape:collect="always" />
    <linearGradient
       id="linearGradient6544">
      <stop
         style="stop-color:#ffffff;stop-opacity:1;"
         offset="0"
         id="stop6546" />
      <stop
         style="stop-color:#c8c8c8;stop-opacity:1;"
         offset="1"
         id="stop6548" />
    </linearGradient>
    <linearGradient
       y2="438.26407"
       x2="399.75739"
       y1="670.48218"
       x1="397.16833"
       gradientUnits="userSpaceOnUse"
       id="linearGradient6552"
       xlink:href="#linearGradient12338-9"
       inkscape:collect="always" />
    <linearGradient
       inkscape:collect="always"
       xlink:href="#linearGradient12338-2"
       id="linearGradient5864"
       gradientUnits="userSpaceOnUse"
       x1="347.25595"
       y1="865.62952"
       x2="337.70001"
       y2="910.31061" />
    <linearGradient
       id="linearGradient12338-2">
      <stop
         style="stop-color:#ffffff;stop-opacity:0.77868855;"
         offset="0"
         id="stop12340-9" />
      <stop
         style="stop-color:#c8c8c8;stop-opacity:0.77868855;"
         offset="1"
         id="stop12342-6" />
    </linearGradient>
    <path
       style="fill:none;stroke:none"
       d="m 212.99232,970.71099 c 84.09952,35.75381 147.59592,16.20422 220.2375,-15.33026"
       id="path6438"
       inkscape:connector-curvature="0"
       sodipodi:nodetypes="cc" />
    <linearGradient
       inkscape:collect="always"
       xlink:href="#linearGradient12338-2"
       id="linearGradient6598"
       gradientUnits="userSpaceOnUse"
       x1="347.25595"
       y1="865.62952"
       x2="337.70001"
       y2="910.31061" />
    <linearGradient
       id="linearGradient6600">
      <stop
         style="stop-color:#ffffff;stop-opacity:1;"
         offset="0"
         id="stop6602" />
      <stop
         style="stop-color:#c8c8c8;stop-opacity:1;"
         offset="1"
         id="stop6604" />
    </linearGradient>
    <linearGradient
       y2="993.42212"
       x2="349.45279"
       y1="1038.5844"
       x1="363.38962"
       gradientUnits="userSpaceOnUse"
       id="linearGradient6608"
       xlink:href="#linearGradient12338-2"
       inkscape:collect="always" />
    <linearGradient
       inkscape:collect="always"
       xlink:href="#linearGradient4445-5"
       id="linearGradient4451-8"
       x1="424.25592"
       y1="629.37921"
       x2="424.25592"
       y2="274.22998"
       gradientUnits="userSpaceOnUse" />
    <linearGradient
       id="linearGradient4445-5">
      <stop
         style="stop-color:#75890c;stop-opacity:1;"
         offset="0"
         id="stop4447-2" />
      <stop
         style="stop-color:#98b600;stop-opacity:1;"
         offset="1"
         id="stop4449-6" />
    </linearGradient>
    <linearGradient
       inkscape:collect="always"
       xlink:href="#linearGradient4445-5"
       id="linearGradient6807"
       x1="246.66824"
       y1="451.5"
       x2="602.33173"
       y2="451.5"
       gradientUnits="userSpaceOnUse" />
  </defs>
  <sodipodi:namedview
     id="base"
     pagecolor="#ffffff"
     bordercolor="#666666"
     borderopacity="1.0"
     inkscape:pageopacity="0.0"
     inkscape:pageshadow="2"
     inkscape:zoom="0.903"
     inkscape:cx="500"
     inkscape:cy="500"
     inkscape:document-units="px"
     inkscape:current-layer="layer1"
     showgrid="false"
     showguides="true"
     inkscape:guide-bbox="true"
     inkscape:snap-bbox="true"
     inkscape:bbox-nodes="true"
     inkscape:bbox-paths="true"
     inkscape:snap-bbox-edge-midpoints="true"
     inkscape:window-width="1625"
     inkscape:window-height="1063"
     inkscape:window-x="124"
     inkscape:window-y="46"
     inkscape:window-maximized="0">
    <sodipodi:guide
       orientation="1,0"
       position="500,500"
       id="guide3785" />
    <sodipodi:guide
       orientation="0,1"
       position="440,500"
       id="guide3787" />
    <sodipodi:guide
       orientation="1,0"
       position="36.507937,396.8254"
       id="guide4477" />
    <sodipodi:guide
       orientation="1,0"
       position="960.31746,325.39683"
       id="guide4479" />
  </sodipodi:namedview>
  <metadata
     id="metadata3782">
    <rdf:RDF>
      <cc:Work
         rdf:about="">
        <dc:format>image/svg+xml</dc:format>
        <dc:type
           rdf:resource="http://purl.org/dc/dcmitype/StillImage" />
        <dc:title></dc:title>
      </cc:Work>
    </rdf:RDF>
  </metadata>
  <g
     inkscape:label="Layer 1"
     inkscape:groupmode="layer"
     id="layer1"
     transform="translate(0,-52.362183)">
    <path
       sodipodi:type="arc"
       style="fill:url(#linearGradient6807);fill-opacity:1.0;stroke:#000000;stroke-opacity:1;stroke-width:0.66349314000000004;stroke-miterlimit:4;stroke-dasharray:none"
       id="path3789"
       sodipodi:cx="424.5"
       sodipodi:cy="451.5"
       sodipodi:rx="177.5"
       sodipodi:ry="177.5"
       d="m 602,451.5 a 177.5,177.5 0 1 1 -355,0 177.5,177.5 0 1 1 355,0 z"
       transform="matrix(2.6752349,0,0,2.6752349,-634.84902,-656.14657)" />
    <path
       sodipodi:type="arc"
       style="fill:url(#linearGradient4451);fill-opacity:1;stroke:#000000;stroke-opacity:1;stroke-width:0.61635143999999997;stroke-miterlimit:4;stroke-dasharray:none"
       id="path3789-5"
       sodipodi:cx="424.5"
       sodipodi:cy="451.5"
       sodipodi:rx="177.5"
       sodipodi:ry="177.5"
       d="m 602,451.5 a 177.5,177.5 0 1 1 -355,0 177.5,177.5 0 1 1 355,0 z"
       transform="matrix(2.6056563,0,0,2.6056563,-605.46511,-624.29363)" />
    <path
       sodipodi:type="arc"
       style="fill:#3f3e3a;fill-opacity:1;stroke:#000000;stroke-opacity:1;stroke-width:1.85448805;stroke-miterlimit:4;stroke-dasharray:none"
       id="path3789-5-4"
       sodipodi:cx="424.5"
       sodipodi:cy="451.5"
       sodipodi:rx="177.5"
       sodipodi:ry="177.5"
       d="m 602,451.5 a 177.5,177.5 0 1 1 -355,0 177.5,177.5 0 1 1 355,0 z"
       transform="matrix(2.1067809,0,0,2.1067809,-393.60385,-400.72847)" />
    <path
       transform="matrix(0.21414782,0.50411494,-1.1714903,0.49764862,1066.7382,48.468095)"
       d="m 694.28571,563.79077 a 252.85715,248.57143 0 1 1 -505.7143,0 252.85715,248.57143 0 1 1 505.7143,0 z"
       sodipodi:ry="248.57143"
       sodipodi:rx="252.85715"
       sodipodi:cy="563.79077"
       sodipodi:cx="441.42856"
       id="path2985-7-0-3"
       style="opacity:0.99581586000000000;fill:#75890c;fill-opacity:1;stroke:#ffffff;stroke-width:5.98840570000000039;stroke-miterlimit:4;stroke-opacity:1;stroke-dasharray:none"
       sodipodi:type="arc" />
    <path
       transform="matrix(0.50411494,-0.21414782,0.49764862,1.1714903,-2.3067897,-14.375917)"
       d="m 694.28571,563.79077 a 252.85715,248.57143 0 1 1 -505.7143,0 252.85715,248.57143 0 1 1 505.7143,0 z"
       sodipodi:ry="248.57143"
       sodipodi:rx="252.85715"
       sodipodi:cy="563.79077"
       sodipodi:cx="441.42856"
       id="path2985-7-0"
       style="fill:none;stroke:#ffffff;stroke-width:5.9884057;stroke-miterlimit:4;stroke-opacity:1;stroke-dasharray:none"
       sodipodi:type="arc" />
    <path
       transform="matrix(3.6811625,-1.5637564,1.5637564,3.6811625,-1769.8256,-867.67932)"
       d="m 410.00001,548.79077 a 26.428572,26.428572 0 1 1 -52.85714,0 26.428572,26.428572 0 1 1 52.85714,0 z"
       sodipodi:ry="26.428572"
       sodipodi:rx="26.428572"
       sodipodi:cy="548.79077"
       sodipodi:cx="383.57144"
       id="path3847-6"
       style="opacity:0;fill:#ffffff;fill-opacity:1;stroke:#000000;stroke-width:0.72483401999999986;stroke-miterlimit:4;stroke-opacity:1;stroke-dasharray:none"
       sodipodi:type="arc" />
    <path
       transform="matrix(0.50788846,0.20503771,-0.47647805,1.1802595,545.23109,-204.36034)"
       d="m 694.28571,563.79077 a 252.85715,248.57143 0 1 1 -505.7143,0 252.85715,248.57143 0 1 1 505.7143,0 z"
       sodipodi:ry="248.57143"
       sodipodi:rx="252.85715"
       sodipodi:cy="563.79077"
       sodipodi:cx="441.42856"
       id="path2985-7-0-3-1"
       style="fill:none;stroke:#ffffff;stroke-width:5.9884057;stroke-miterlimit:4;stroke-opacity:1;stroke-dasharray:none"
       sodipodi:type="arc" />
    <path
       transform="matrix(0.20503771,-0.50788846,1.1802595,0.47647805,-255.13528,507.13112)"
       d="m 694.28571,563.79077 a 252.85715,248.57143 0 1 1 -505.7143,0 252.85715,248.57143 0 1 1 505.7143,0 z"
       sodipodi:ry="248.57143"
       sodipodi:rx="252.85715"
       sodipodi:cy="563.79077"
       sodipodi:cx="441.42856"
       id="path2985-7-0-3-1-3"
       style="fill:none;stroke:#ffffff;stroke-width:5.9884057;stroke-miterlimit:4;stroke-opacity:1;stroke-dasharray:none"
       sodipodi:type="arc" />
    <path
       sodipodi:type="inkscape:offset"
       inkscape:radius="-2.8640897"
       inkscape:original="M 424.5 251.78125 C 314.46367 251.78125 224.78125 341.46367 224.78125 451.5 C 224.78125 561.53633 314.46367 651.21875 424.5 651.21875 C 534.53633 651.21875 624.21875 561.53633 624.21875 451.5 C 624.21875 341.46367 534.53633 251.78125 424.5 251.78125 z "
       style="opacity:0;fill:#717171;fill-opacity:0.95475111000000001;stroke:none"
       id="path6719"
       d="m 424.5,254.65625 c -108.48013,0 -196.84375,88.36362 -196.84375,196.84375 0,108.48013 88.36362,196.84375 196.84375,196.84375 108.48013,0 196.84375,-88.36362 196.84375,-196.84375 0,-108.48013 -88.36362,-196.84375 -196.84375,-196.84375 z"
       transform="matrix(0,-2.2161731,2.2161731,0,-500.87751,1492.8849)" />
    <path
       sodipodi:type="arc"
       style="opacity:0;fill:#717171;fill-opacity:0.95475111000000001;stroke:none"
       id="path3789-5-2-5"
       sodipodi:cx="424.5"
       sodipodi:cy="451.5"
       sodipodi:rx="177.5"
       sodipodi:ry="177.5"
       d="m 602,451.5 a 177.5,177.5 0 1 1 -355,0 177.5,177.5 0 1 1 355,0 z"
       transform="matrix(-2.2161731,0,0,-2.2161731,1440.4901,1552.7216)" />
    <path
       transform="matrix(2.0604736,-0.87528843,0.87528843,2.0604736,-769.89146,-237.72196)"
       d="m 410.00001,548.79077 a 26.428572,26.428572 0 1 1 -52.85714,0 26.428572,26.428572 0 1 1 52.85714,0 z"
       sodipodi:ry="26.428572"
       sodipodi:rx="26.428572"
       sodipodi:cy="548.79077"
       sodipodi:cx="383.57144"
       id="path3847"
       style="fill:#22221f;fill-opacity:1;stroke:#000000;stroke-width:1.93993688;stroke-miterlimit:4;stroke-opacity:1;stroke-dasharray:none"
       sodipodi:type="arc" />
    <g
       transform="matrix(1.0060631,0,0,1.0114849,-0.89223058,-4.5318413)"
       style="font-size:40px;font-style:normal;font-weight:normal;line-height:125%;letter-spacing:0px;word-spacing:0px;fill:#3f3e3a;fill-opacity:1;stroke:#fffcfc;stroke-width:2.00045529000000011;stroke-miterlimit:4;stroke-opacity:0.99547511000000000;font-family:Sans;stroke-dasharray:none"
       id="text6691">
      <path
         d="m 78.891533,453.85688 c -0.829087,3.56326 -0.156158,6.633 2.018789,9.20922 2.175006,2.57627 5.65148,4.42028 10.429433,5.53203 4.757745,1.10708 8.681055,0.98491 11.769935,-0.36652 3.0889,-1.35139 5.04791,-3.80871 5.87702,-7.37198 0.83383,-3.58345 0.16326,-6.66331 -2.01172,-9.23959 -2.17497,-2.57621 -5.64133,-4.41786 -10.399065,-5.52496 -4.777958,-1.11173 -8.71139,-0.99191 -11.800306,0.35945 -3.088865,1.35146 -5.050225,3.8189 -5.884086,7.40235 m -8.47281,-1.97152 c 1.695963,-7.28839 5.109738,-12.51244 10.241334,-15.67216 5.131656,-3.15961 11.372053,-3.88442 18.721211,-2.17442 7.328932,1.7054 12.598182,5.10835 15.807772,10.20887 3.20957,5.1006 3.9664,11.29509 2.27048,18.5835 -1.69122,7.26821 -5.10499,12.49226 -10.24133,15.67216 -5.13163,3.15968 -11.3619,3.88684 -18.690845,2.18148 -7.349146,-1.71005 -12.62852,-5.11535 -15.838137,-10.21593 -3.204831,-5.12078 -3.961658,-11.31528 -2.270485,-18.5835"
         style="font-size:63.85619736000000302px;font-variant:normal;font-weight:bold;font-stretch:normal;stroke-opacity:0.99547511000000000;font-family:DejaVu Sans;-inkscape-font-specification:DejaVu Sans Bold;stroke:#fffcfc;stroke-width:2.00045529000000011;stroke-miterlimit:4;stroke-dasharray:none;fill:#3f3e3a;fill-opacity:1"
         id="path7238" />
      <path
         d="m 81.430859,414.4075 6.980744,-18.66093 c 2.075684,-5.54859 4.903289,-9.34007 8.482822,-11.37445 3.567395,-2.06103 7.628945,-2.23946 12.184645,-0.53529 4.5752,1.71155 7.54192,4.51914 8.90016,8.42277 1.34607,3.87697 0.98128,8.58974 -1.09438,14.13834 l -2.77482,7.41765 15.12733,5.65888 -4.20593,11.24328 -43.600571,-16.31025 m 12.353655,-8.19535 12.177786,4.55551 2.32692,-6.22031 c 0.81571,-2.18049 0.92003,-4.06118 0.31295,-5.6421 -0.62651,-1.58813 -1.91321,-2.74636 -3.86012,-3.4747 -1.94687,-0.72826 -3.6681,-0.69525 -5.163706,0.099 -1.495557,0.79436 -2.651195,2.28178 -3.466915,4.46226 l -2.326915,6.22031"
         style="font-size:63.85619736000000302px;font-variant:normal;font-weight:bold;font-stretch:normal;stroke-opacity:0.99547511000000000;font-family:DejaVu Sans;-inkscape-font-specification:DejaVu Sans Bold;stroke:#fffcfc;stroke-width:2.00045529000000011;stroke-miterlimit:4;stroke-dasharray:none;fill:#3f3e3a;fill-opacity:1"
         id="path7240" />
      <path
         d="m 100.71338,365.94879 14.77343,-28.83112 8.07493,4.13769 -9.29915,18.14779 7.7142,3.95285 8.74461,-17.06558 8.07493,4.13769 -8.74461,17.06559 9.49013,4.86286 9.61196,-18.75827 8.07494,4.1377 -15.08624,29.44159 -41.42913,-21.22879"
         style="font-size:63.85619736000000302px;font-variant:normal;font-weight:bold;font-stretch:normal;stroke-opacity:0.99547511000000000;font-family:DejaVu Sans;-inkscape-font-specification:DejaVu Sans Bold;stroke:#fffcfc;stroke-width:2.00045529000000011;stroke-miterlimit:4;stroke-dasharray:none;fill:#3f3e3a;fill-opacity:1"
         id="path7242" />
      <path
         d="m 123.94646,322.32718 7.53628,-11.08876 35.92344,3.94407 -26.40671,-17.94685 6.39707,-9.41254 38.50119,26.16663 -7.53627,11.08876 -35.92345,-3.94407 26.40671,17.94684 -6.39707,9.41255 -38.50119,-26.16663"
         style="font-size:63.85619736000000302px;font-variant:normal;font-weight:bold;font-stretch:normal;stroke-opacity:0.99547511000000000;font-family:DejaVu Sans;-inkscape-font-specification:DejaVu Sans Bold;stroke:#fffcfc;stroke-width:2.00045529000000011;stroke-miterlimit:4;stroke-dasharray:none;fill:#3f3e3a;fill-opacity:1"
         id="path7244" />
      <path
         d="m 201.31028,257.58879 c 1.77388,-1.78307 2.71041,-3.38761 2.8096,-4.81365 0.11385,-1.44069 -0.58815,-2.91605 -2.106,-4.42609 -1.5031,-1.49528 -2.96735,-2.17496 -4.39274,-2.03902 -1.41072,0.12129 -3.00302,1.07346 -4.7769,2.85652 l -3.56241,3.58093 8.46604,8.42224 3.56241,-3.58093 m 2.3174,9.43032 12.48907,12.42445 -8.46622,8.51025 -33.00209,-32.83134 12.93023,-12.99747 c 4.32475,-4.34717 8.22078,-6.80455 11.68811,-7.37213 3.482,-0.58221 6.79978,0.69529 9.95337,3.83249 2.18097,2.16975 3.44367,4.48147 3.78811,6.93515 0.35907,2.43903 -0.18534,5.0494 -1.63326,7.8311 1.4234,-0.90025 3.06113,-1.3381 4.91319,-1.31355 1.85197,-0.005 4.19757,0.46685 7.03683,1.41484 l 13.96827,4.70399 -9.01597,9.06286 -12.203,-4.13533 c -2.45679,-0.8314 -4.40509,-1.12767 -5.8449,-0.88879 -1.42516,0.2242 -2.82676,1.0289 -4.20481,2.41409 l -2.39693,2.40939"
         style="font-size:63.85619736000000302px;font-variant:normal;font-weight:bold;font-stretch:normal;stroke-opacity:0.99547511000000000;font-family:DejaVu Sans;-inkscape-font-specification:DejaVu Sans Bold;stroke:#fffcfc;stroke-width:2.00045529000000011;stroke-miterlimit:4;stroke-dasharray:none;fill:#3f3e3a;fill-opacity:1"
         id="path7246" />
      <path
         d="m 259.86665,229.53522 -14.78863,11.55932 2.88906,8.50605 -9.50697,7.431 -15.08298,-47.29524 11.27571,-8.8135 42.25279,26.05834 -9.50697,7.43099 -7.53201,-4.87696 m -17.74913,2.91124 10.04742,-7.85343 -16.41714,-10.67499 6.36972,18.52842"
         style="font-size:63.85619736000000302px;font-variant:normal;font-weight:bold;font-stretch:normal;stroke-opacity:0.99547511000000000;font-family:DejaVu Sans;-inkscape-font-specification:DejaVu Sans Bold;stroke:#fffcfc;stroke-width:2.00045529000000011;stroke-miterlimit:4;stroke-dasharray:none;fill:#3f3e3a;fill-opacity:1"
         id="path7248" />
      <path
         d="m 273.43961,185.31189 14.44639,24.45677 3.70476,-2.18837 c 4.22376,-2.49492 6.82683,-5.44484 7.80923,-8.84977 1.00024,-3.41544 0.32162,-7.11873 -2.03587,-11.10988 -2.34696,-3.97317 -5.24323,-6.34237 -8.68882,-7.10761 -3.44562,-0.76514 -7.28926,0.10502 -11.53093,2.61049 l -3.70476,2.18837 m -14.95033,-1.70698 10.8995,-6.43824 c 6.08511,-3.59436 10.87215,-5.83054 14.36114,-6.70855 3.4963,-0.90636 6.92251,-0.95055 10.27864,-0.13255 2.94696,0.69765 5.57457,1.95809 7.88284,3.78133 2.30822,1.82334 4.34509,4.22941 6.11061,7.21823 1.7866,3.0247 2.92656,5.99678 3.41988,8.91625 0.48268,2.90165 0.3183,5.8113 -0.49313,8.72894 -0.92139,3.34474 -2.62644,6.34361 -5.11515,8.99663 -2.49934,2.63516 -6.75575,5.72879 -12.76925,9.2809 l -10.8995,6.43824 -23.67558,-40.08118"
         style="font-size:63.85619736000000302px;font-variant:normal;font-weight:bold;font-stretch:normal;stroke-opacity:0.99547511000000000;font-family:DejaVu Sans;-inkscape-font-specification:DejaVu Sans Bold;stroke:#fffcfc;stroke-width:2.00045529000000011;stroke-miterlimit:4;stroke-dasharray:none;fill:#3f3e3a;fill-opacity:1"
         id="path7250" />
      <path
         d="m 308.77833,155.65178 10.88219,-5.06747 19.65126,42.20027 -10.88219,5.06747 -19.65126,-42.20027"
         style="font-size:63.85619736000000302px;font-variant:normal;font-weight:bold;font-stretch:normal;stroke-opacity:0.99547511000000000;font-family:DejaVu Sans;-inkscape-font-specification:DejaVu Sans Bold;stroke:#fffcfc;stroke-width:2.00045529000000011;stroke-miterlimit:4;stroke-dasharray:none;fill:#3f3e3a;fill-opacity:1"
         id="path7252" />
      <path
         d="m 373.60483,170.27254 -17.64063,6.41323 0.11385,8.98258 -11.34041,4.12279 0.29952,-49.64117 13.45025,-4.88982 32.11002,37.85871 -11.34041,4.12279 -5.65219,-6.96911 m -17.77845,-2.72651 11.98508,-4.35717 -12.3059,-15.23295 0.32082,19.59012"
         style="font-size:63.85619736000000302px;font-variant:normal;font-weight:bold;font-stretch:normal;stroke-opacity:0.99547511000000000;font-family:DejaVu Sans;-inkscape-font-specification:DejaVu Sans Bold;stroke:#fffcfc;stroke-width:2.00045529000000011;stroke-miterlimit:4;stroke-dasharray:none;fill:#3f3e3a;fill-opacity:1"
         id="path7254" />
      <path
         d="m 375.63867,129.40505 41.71319,-10.03542 2.12232,8.82161 -15.00584,3.61012 8.76641,36.43842 -11.67121,2.80788 -8.7664,-36.43842 -15.03616,3.61742 -2.12231,-8.82161"
         style="font-size:63.85619736000000302px;font-variant:normal;font-weight:bold;font-stretch:normal;stroke-opacity:0.99547511000000000;font-family:DejaVu Sans;-inkscape-font-specification:DejaVu Sans Bold;stroke:#fffcfc;stroke-width:2.00045529000000011;stroke-miterlimit:4;stroke-dasharray:none;fill:#3f3e3a;fill-opacity:1"
         id="path7256" />
      <path
         d="m 427.47431,118.06768 11.86899,-1.79673 6.96758,46.02703 -11.86899,1.79673 -6.96758,-46.02703"
         style="font-size:63.85619736000000302px;font-variant:normal;font-weight:bold;font-stretch:normal;stroke-opacity:0.99547511000000000;font-family:DejaVu Sans;-inkscape-font-specification:DejaVu Sans Bold;stroke:#fffcfc;stroke-width:2.00045529000000011;stroke-miterlimit:4;stroke-dasharray:none;fill:#3f3e3a;fill-opacity:1"
         id="path7258" />
      <path
         d="m 477.12326,120.63652 c -3.65356,0.18904 -6.41733,1.68495 -8.29131,4.48771 -1.87401,2.80284 -2.68429,6.65377 -2.43085,11.55281 0.25235,4.87833 1.45513,8.61472 3.60835,11.20918 2.15318,2.59448 5.05655,3.79722 8.71011,3.60821 3.67427,-0.19007 6.44842,-1.6865 8.32245,-4.48932 1.87396,-2.80279 2.68478,-6.64334 2.43246,-11.52167 -0.25347,-4.89904 -1.45678,-8.64581 -3.60995,-11.24031 -2.15323,-2.59444 -5.06698,-3.79664 -8.74126,-3.60661 m -0.44941,-8.68754 c 7.47313,-0.38654 13.4377,1.44878 17.89374,5.50597 4.45596,4.05728 6.87886,9.85361 7.26873,17.389 0.38869,7.5147 -1.42373,13.51971 -5.43725,18.01507 -4.01362,4.49538 -9.75697,6.93636 -17.23009,7.32295 -7.45242,0.38552 -13.41699,-1.4498 -17.89374,-5.50597 -4.45601,-4.05722 -6.87838,-9.84317 -7.26712,-17.35786 -0.38981,-7.5354 1.42207,-13.5508 5.43564,-18.04621 4.03432,-4.4964 9.77768,-6.93738 17.23009,-7.32295"
         style="font-size:63.85619736000000302px;font-variant:normal;font-weight:bold;font-stretch:normal;stroke-opacity:0.99547511000000000;font-family:DejaVu Sans;-inkscape-font-specification:DejaVu Sans Bold;stroke:#fffcfc;stroke-width:2.00045529000000011;stroke-miterlimit:4;stroke-dasharray:none;fill:#3f3e3a;fill-opacity:1"
         id="path7260" />
      <path
         d="m 516.01404,112.00251 13.3607,1.1169 14.21198,33.22754 2.65979,-31.81712 11.34107,0.94807 -3.878,46.38961 -13.3607,-1.11691 -14.21199,-33.22753 -2.65979,31.81711 -11.34106,-0.94807 3.878,-46.3896"
         style="font-size:63.85619736000000302px;font-variant:normal;font-weight:bold;font-stretch:normal;stroke-opacity:0.99547511000000000;font-family:DejaVu Sans;-inkscape-font-specification:DejaVu Sans Bold;stroke:#fffcfc;stroke-width:2.00045529000000011;stroke-miterlimit:4;stroke-dasharray:none;fill:#3f3e3a;fill-opacity:1"
         id="path7262" />
      <path
         d="m 600.45209,123.00661 14.64473,4.35339 3.06296,26.9006 17.32012,-20.84139 14.61484,4.3445 -13.26451,44.6216 -10.87894,-3.23394 9.70184,-32.63684 -17.4332,21.00295 -7.29248,-2.16781 -3.1292,-27.11546 -9.70184,32.63683 -10.90883,-3.24283 13.26451,-44.6216"
         style="font-size:63.85619736000000302px;font-variant:normal;font-weight:bold;font-stretch:normal;stroke-opacity:0.99547511000000000;font-family:DejaVu Sans;-inkscape-font-specification:DejaVu Sans Bold;stroke:#fffcfc;stroke-width:2.00045529000000011;stroke-miterlimit:4;stroke-dasharray:none;fill:#3f3e3a;fill-opacity:1"
         id="path7264" />
      <path
         d="m 683.41298,160.94293 c -3.31064,-1.55691 -6.45323,-1.54175 -9.42779,0.0455 -2.97463,1.58727 -5.50578,4.6005 -7.59346,9.03969 -2.07888,4.42041 -2.78101,8.28231 -2.10641,11.58571 0.67456,3.30341 2.66715,5.73358 5.97777,7.29052 3.32938,1.56577 6.48138,1.55503 9.45601,-0.0322 2.97456,-1.58724 5.50129,-4.59106 7.58019,-9.01147 2.08765,-4.4392 2.79421,-8.3105 2.11968,-11.61393 -0.67463,-3.30339 -2.67663,-5.73798 -6.00599,-7.30378 m 3.70214,-7.87207 c 6.77162,3.18466 11.16494,7.61674 13.17996,13.29624 2.01491,5.67955 1.4168,11.93336 -1.79431,18.76146 -3.20238,6.80929 -7.63334,11.24907 -13.29289,13.31936 -5.65964,2.07027 -11.87528,1.51309 -18.64692,-1.67153 -6.75289,-3.1758 -11.1462,-7.60787 -13.17997,-13.29625 -2.01497,-5.67952 -1.42129,-11.92393 1.78104,-18.73324 3.21116,-6.82808 7.64654,-11.27727 13.30617,-13.34758 5.67838,-2.06139 11.89401,-1.50422 18.64692,1.67154"
         style="font-size:63.85619736000000302px;font-variant:normal;font-weight:bold;font-stretch:normal;stroke-opacity:0.99547511000000000;font-family:DejaVu Sans;-inkscape-font-specification:DejaVu Sans Bold;stroke:#fffcfc;stroke-width:2.00045529000000011;stroke-miterlimit:4;stroke-dasharray:none;fill:#3f3e3a;fill-opacity:1"
         id="path7266" />
      <path
         d="m 721.84392,171.74635 11.23929,7.30987 -3.21483,35.99604 17.4077,-26.7652 9.54033,6.2049 -25.38056,39.02386 -11.23929,-7.30988 3.21483,-35.99603 -17.4077,26.76519 -9.54033,-6.20489 25.38056,-39.02386"
         style="font-size:63.85619736000000302px;font-variant:normal;font-weight:bold;font-stretch:normal;stroke-opacity:0.99547511000000000;font-family:DejaVu Sans;-inkscape-font-specification:DejaVu Sans Bold;stroke:#fffcfc;stroke-width:2.00045529000000011;stroke-miterlimit:4;stroke-dasharray:none;fill:#3f3e3a;fill-opacity:1"
         id="path7268" />
      <path
         d="m 769.54168,204.58244 9.37673,7.4952 -29.06581,36.36224 -9.37674,-7.4952 29.06582,-36.36224"
         style="font-size:63.85619736000000302px;font-variant:normal;font-weight:bold;font-stretch:normal;stroke-opacity:0.99547511000000000;font-family:DejaVu Sans;-inkscape-font-specification:DejaVu Sans Bold;stroke:#fffcfc;stroke-width:2.00045529000000011;stroke-miterlimit:4;stroke-dasharray:none;fill:#3f3e3a;fill-opacity:1"
         id="path7270" />
      <path
         d="m 786.97169,218.22689 31.11835,29.53555 -6.24626,6.58099 -11.19446,-10.62507 -25.80068,27.18332 -8.7068,-8.26395 25.80068,-27.18332 -11.21708,-10.64653 6.24625,-6.58099"
         style="font-size:63.85619736000000302px;font-variant:normal;font-weight:bold;font-stretch:normal;stroke-opacity:0.99547511000000000;font-family:DejaVu Sans;-inkscape-font-specification:DejaVu Sans Bold;stroke:#fffcfc;stroke-width:2.00045529000000011;stroke-miterlimit:4;stroke-dasharray:none;fill:#3f3e3a;fill-opacity:1"
         id="path7272" />
      <path
         d="m 833.67196,277.9497 c -2.32289,-2.82638 -5.16825,-4.16057 -8.53608,-4.00257 -3.36792,0.15801 -6.94682,1.79438 -10.73673,4.90909 -3.7739,3.10152 -6.06457,6.28902 -6.87202,9.56248 -0.80749,3.27346 -0.0498,6.32338 2.27305,9.14979 2.33602,2.84243 5.18798,4.18465 8.55589,4.02666 3.36784,-0.15803 6.93871,-1.78779 10.71263,-4.8893 3.78989,-3.11473 6.08859,-6.30882 6.89611,-9.58227 0.80743,-3.27347 0.0431,-6.33143 -2.29285,-9.17388 m 6.72071,-5.52335 c 4.75121,5.78126 6.81896,11.6693 6.20324,17.66413 -0.61584,5.99481 -3.83844,11.38765 -9.66782,16.17854 -5.81342,4.77763 -11.72037,6.88783 -17.72089,6.3306 -6.00057,-0.55729 -11.37648,-3.72655 -16.12773,-9.50778 -4.73808,-5.76521 -6.80583,-11.65325 -6.20324,-17.66413 0.61577,-5.99483 3.83034,-11.38107 9.64373,-16.15874 5.82941,-4.79085 11.7444,-6.90765 17.74498,-6.3504 6.01371,0.57334 11.38961,3.7426 16.12773,9.50778"
         style="font-size:63.85619736000000302px;font-variant:normal;font-weight:bold;font-stretch:normal;stroke-opacity:0.99547511000000000;font-family:DejaVu Sans;-inkscape-font-specification:DejaVu Sans Bold;stroke:#fffcfc;stroke-width:2.00045529000000011;stroke-miterlimit:4;stroke-dasharray:none;fill:#3f3e3a;fill-opacity:1"
         id="path7274" />
      <path
         d="m 855.01985,329.39023 c 1.32933,2.13515 2.67669,3.41432 4.04208,3.83752 1.37631,0.44083 2.97325,0.0954 4.79081,-1.03614 1.79984,-1.12063 2.79685,-2.39026 2.99103,-3.80889 0.20507,-1.40099 -0.35704,-3.16906 -1.68636,-5.30421 l -2.66971,-4.28795 -10.13756,6.31172 2.66971,4.28795 m -9.71042,0.0957 -14.95488,9.31103 -6.34468,-10.19049 39.51794,-24.60419 9.69007,15.56367 c 3.24095,5.20553 4.74055,9.56086 4.49881,13.06602 -0.23086,3.52278 -2.23438,6.45972 -6.01054,8.81084 -2.61164,1.62598 -5.15112,2.32558 -7.61846,2.09881 -2.45644,-0.20916 -4.87269,-1.33704 -7.24877,-3.38364 0.55027,1.59176 0.60133,3.28624 0.15319,5.08344 -0.41958,1.80381 -1.41594,3.97903 -2.98909,6.52564 l -7.77852,12.51938 -6.75668,-10.85222 6.82063,-10.93129 c 1.37206,-2.20103 2.10672,-4.02966 2.204,-5.4859 0.10821,-1.43863 -0.35403,-2.98729 -1.38673,-4.64599 l -1.79629,-2.88511"
         style="font-size:63.85619736000000302px;font-variant:normal;font-weight:bold;font-stretch:normal;stroke-opacity:0.99547511000000000;font-family:DejaVu Sans;-inkscape-font-specification:DejaVu Sans Bold;stroke:#fffcfc;stroke-width:2.00045529000000011;stroke-miterlimit:4;stroke-dasharray:none;fill:#3f3e3a;fill-opacity:1"
         id="path7276" />
      <path
         d="m 890.63393,350.05669 5.37401,10.73412 -41.62608,20.83996 -5.374,-10.73411 41.62607,-20.83997"
         style="font-size:63.85619736000000302px;font-variant:normal;font-weight:bold;font-stretch:normal;stroke-opacity:0.99547511000000000;font-family:DejaVu Sans;-inkscape-font-specification:DejaVu Sans Bold;stroke:#fffcfc;stroke-width:2.00045529000000011;stroke-miterlimit:4;stroke-dasharray:none;fill:#3f3e3a;fill-opacity:1"
         id="path7278" />
      <path
         d="m 903.24507,375.40802 4.79366,12.52105 -23.76418,27.22706 29.81757,-11.41559 4.06903,10.62833 -43.47425,16.64403 -4.79366,-12.52105 23.76419,-27.22706 -29.81757,11.41559 -4.06904,-10.62833 43.47425,-16.64403"
         style="font-size:63.85619736000000302px;font-variant:normal;font-weight:bold;font-stretch:normal;stroke-opacity:0.99547511000000000;font-family:DejaVu Sans;-inkscape-font-specification:DejaVu Sans Bold;stroke:#fffcfc;stroke-width:2.00045529000000011;stroke-miterlimit:4;stroke-dasharray:none;fill:#3f3e3a;fill-opacity:1"
         id="path7280" />
      <path
         d="m 891.00691,482.17285 c -2.09972,-2.58229 -3.87134,-5.35886 -5.31487,-8.32971 -1.44355,-2.97093 -2.55665,-6.12601 -3.33928,-9.46527 -1.76925,-7.54883 -1.06614,-14.02249 2.10935,-19.42098 3.19572,-5.40326 8.40608,-8.95156 15.63109,-10.64492 7.30593,-1.71232 13.58005,-0.81299 18.82238,2.698 5.24225,3.511 8.77885,9.17244 10.60982,16.98436 0.70669,3.01545 1.09928,5.96579 1.17775,8.851 0.0831,2.90541 -0.14488,5.71297 -0.68398,8.42269 l -9.38036,2.19852 c 0.84394,-2.86658 1.32602,-5.63761 1.44623,-8.31312 0.12487,-2.65533 -0.10676,-5.23774 -0.69489,-7.74724 -1.091,-4.65478 -3.23829,-7.94109 -6.44187,-9.85896 -3.17868,-1.90239 -7.18645,-2.28676 -12.02333,-1.1531 -4.79645,1.12415 -8.21542,3.20645 -10.25692,6.24692 -2.04154,3.04044 -2.53816,6.79698 -1.48988,11.26962 0.28458,1.21426 0.61867,2.32087 1.00226,3.31984 0.40854,1.0144 0.87196,1.89855 1.39026,2.65246 l 8.80357,-2.06334 -1.67201,-7.13393 7.83215,-1.83565 4.26896,18.21429 -21.79643,5.10852"
         style="font-size:63.85619736000000302px;font-variant:normal;font-weight:bold;font-stretch:normal;stroke-opacity:0.99547511000000000;font-family:DejaVu Sans;-inkscape-font-specification:DejaVu Sans Bold;stroke:#fffcfc;stroke-width:2.00045529000000011;stroke-miterlimit:4;stroke-dasharray:none;fill:#3f3e3a;fill-opacity:1"
         id="path7282" />
    </g>
    <g
       transform="translate(0,-2)"
       style="font-size:40px;font-style:normal;font-weight:normal;line-height:125%;letter-spacing:0px;word-spacing:0px;fill:#ffffff;fill-opacity:1;stroke:#000000;stroke-width:0.2;stroke-miterlimit:4;stroke-opacity:0.42081448;font-family:Sans"
       id="text6710">
      <path
         d="m 187.70106,806.02746 -3.65164,2.82558 c -0.42001,-1.94703 -0.95083,-3.67986 -1.59247,-5.19851 -0.64171,-1.51863 -1.41674,-2.86494 -2.3251,-4.03891 -1.57776,-2.03898 -3.19236,-3.30858 -4.84379,-3.80879 -1.64193,-0.48784 -3.19197,-0.16761 -4.65013,0.9607 -1.22342,0.94665 -1.86816,2.02835 -1.93421,3.2451 -0.0442,1.21955 0.53585,3.00321 1.74009,5.35098 l 1.28644,2.62 c 1.62962,3.20397 2.28252,5.9882 1.95872,8.35273 -0.30194,2.3673 -1.57743,4.42109 -3.82648,6.1614 -2.6816,2.07494 -5.41244,2.74579 -8.19252,2.01256 -2.77055,-0.72091 -5.49927,-2.81759 -8.18619,-6.29004 -1.01358,-1.30991 -1.9458,-2.82105 -2.79666,-4.53343 -0.8413,-1.70004 -1.58352,-3.56565 -2.22665,-5.59682 l 3.85555,-2.98335 c 0.32345,2.17975 0.83308,4.16606 1.52889,5.95892 0.6958,1.79285 1.58874,3.39366 2.67882,4.80242 1.65421,2.13784 3.3509,3.46246 5.09006,3.97386 1.73912,0.51138 3.38721,0.16467 4.94428,-1.04013 1.3593,-1.05184 2.09694,-2.29433 2.21291,-3.72747 0.12549,-1.42081 -0.35649,-3.23095 -1.44593,-5.43042 l -1.31933,-2.6242 c -1.60494,-3.22309 -2.29713,-5.91766 -2.07655,-8.08373 0.22054,-2.16606 1.38738,-4.06664 3.50054,-5.70176 2.44676,-1.89326 5.03909,-2.52609 7.777,-1.89848 2.74741,0.64 5.29247,2.47378 7.63521,5.50136 1.00397,1.29755 1.90971,2.71064 2.71722,4.23928 0.80742,1.52866 1.5214,3.17904 2.14192,4.95115"
         style="fill:#252525;stroke:#fffcfc;-inkscape-font-specification:Sans"
         id="path7285" />
      <path
         d="m 209.58122,833.12283 -3.70345,3.34759 c 0.0324,-2.17769 -0.28665,-4.18506 -0.95722,-6.02211 -0.66017,-1.82545 -1.67128,-3.49162 -3.03333,-4.99851 -2.6823,-2.96738 -5.64583,-4.4168 -8.89061,-4.34825 -3.23323,0.0581 -6.56536,1.63781 -9.99639,4.73918 -3.41947,3.09089 -5.32665,6.24705 -5.72153,9.46846 -0.38331,3.21093 0.76617,6.30009 3.44846,9.2675 1.36207,1.50686 2.91797,2.68058 4.66771,3.52116 1.76018,0.85214 3.72523,1.37169 5.89515,1.55865 l -3.66868,3.31617 c -1.94522,-0.47432 -3.74989,-1.21256 -5.414,-2.21472 -1.65366,-0.99061 -3.172,-2.25094 -4.55504,-3.78098 -3.55192,-3.92949 -5.14973,-8.10882 -4.79344,-12.538 0.36787,-4.43966 2.63246,-8.54022 6.79377,-12.30169 4.17288,-3.77193 8.4806,-5.61217 12.92318,-5.52073 4.45411,0.081 8.45713,2.08622 12.00908,6.01568 1.40396,1.55326 2.51549,3.20237 3.3346,4.94734 0.8411,1.74609 1.39501,3.59384 1.66174,5.54326"
         style="fill:#252525;stroke:#fffcfc;-inkscape-font-specification:Sans"
         id="path7287" />
      <path
         d="m 216.60787,836.07328 3.37204,3.3232 -24.56206,24.92304 -3.37204,-3.3232 24.56206,-24.92304"
         style="fill:#252525;stroke:#fffcfc;-inkscape-font-specification:Sans"
         id="path7289" />
      <path
         d="m 226.48595,845.76878 16.57371,14.657 -2.6395,2.98468 -13.02722,-11.52065 -6.86271,7.76015 12.48296,11.03933 -2.6395,2.98467 -12.48296,-11.03933 -8.39983,9.49828 13.34325,11.80013 -2.6395,2.98467 -16.88974,-14.93647 23.18104,-26.21246"
         style="fill:#252525;stroke:#fffcfc;-inkscape-font-specification:Sans"
         id="path7291" />
      <path
         d="m 248.42742,864.88806 5.0931,3.83419 -5.21056,32.71878 17.60625,-23.38705 3.67003,2.76287 -21.04575,27.95586 -5.09309,-3.83419 5.21055,-32.71879 -17.60625,23.38705 -3.67003,-2.76287 21.04575,-27.95585"
         style="fill:#252525;stroke:#fffcfc;-inkscape-font-specification:Sans"
         id="path7293" />
      <path
         d="m 272.36169,882.81956 24.96565,15.90498 -2.14081,3.36038 -10.47648,-6.6743 -16.66057,26.15167 -4.01269,-2.55638 16.66057,-26.15167 -10.47648,-6.6743 2.14081,-3.36038"
         style="fill:#252525;stroke:#fffcfc;-inkscape-font-specification:Sans"
         id="path7295" />
      <path
         d="m 301.26211,900.70077 4.12312,2.32684 -17.19788,30.47435 -4.12312,-2.32684 17.19788,-30.47435"
         style="fill:#252525;stroke:#fffcfc;-inkscape-font-specification:Sans"
         id="path7297" />
      <path
         d="m 321.64995,916.7932 -13.43768,12.80308 11.55087,5.66938 1.88681,-18.47246 m -0.34352,-5.36418 4.81812,2.36483 -3.44614,37.28839 -4.41837,-2.16861 1.09372,-9.4627 -14.15981,-6.94989 -6.81656,6.65382 -4.48149,-2.19959 27.41053,-25.52625"
         style="fill:#252525;stroke:#fffcfc;-inkscape-font-specification:Sans"
         id="path7299" />
      <path
         d="m 359.39336,932.20158 -4.417,12.38433 5.60716,1.99985 c 2.07507,0.74012 3.8708,0.77509 5.38721,0.10491 1.51635,-0.67016 2.62885,-1.99864 3.33748,-3.98544 0.70334,-1.97205 0.68,-3.69734 -0.07,-5.17587 -0.75006,-1.47849 -2.16262,-2.58779 -4.23768,-3.32792 l -5.60717,-1.99986 m -3.15224,-5.25496 10.0664,3.5903 c 3.69393,1.31751 6.1836,3.15106 7.46902,5.50063 1.30532,2.34016 1.38323,5.12173 0.23374,8.34473 -1.16005,3.25246 -2.98587,5.37163 -5.47746,6.35752 -2.47693,0.99115 -5.56236,0.82798 -9.25629,-0.48951 l -5.60717,-1.99986 -4.72407,13.24526 -4.45924,-1.59043 11.75507,-32.95864"
         style="fill:#252525;stroke:#fffcfc;-inkscape-font-specification:Sans"
         id="path7301" />
      <path
         d="m 393.73049,958.4235 c 0.88764,0.60144 1.6413,1.57113 2.26099,2.90906 0.63471,1.3421 1.15726,3.09088 1.56766,5.24634 l 2.08901,10.49584 -4.90284,-1.35238 -1.9285,-9.84374 c -0.49143,-2.56682 -1.16253,-4.36468 -2.0133,-5.39358 -0.83575,-1.02473 -2.15736,-1.78639 -3.96484,-2.28497 l -4.97062,-1.37107 -3.93248,14.25665 -4.56394,-1.25889 9.30459,-33.73245 10.30274,2.84186 c 3.85597,1.06364 6.51062,2.66304 7.96397,4.7982 1.45328,2.13521 1.73122,4.82955 0.83383,8.08303 -0.58586,2.12383 -1.56902,3.74903 -2.94951,4.87561 -1.36548,1.13077 -3.0644,1.70759 -5.09676,1.73049 m -7.52487,-17.31974 -3.30304,11.97468 5.73881,1.58297 c 2.1991,0.6066 3.99516,0.55903 5.38818,-0.14271 1.41218,-0.71263 2.39042,-2.05554 2.93472,-4.02875 0.54425,-1.97316 0.38865,-3.61262 -0.4668,-4.91837 -0.83628,-1.31662 -2.35397,-2.27823 -4.55307,-2.88485 l -5.7388,-1.58297"
         style="fill:#252525;stroke:#fffcfc;-inkscape-font-specification:Sans"
         id="path7303" />
      <path
         d="m 422.51573,950.65641 -9.61482,15.87594 12.63261,2.44576 -3.01779,-18.3217 m -1.73664,-5.0869 5.26934,1.02018 6.4416,36.88911 -4.83215,-0.93553 -1.42315,-9.41879 -15.48587,-2.99817 -4.83563,8.20704 -4.90118,-0.9489 19.76704,-31.81494"
         style="fill:#252525;stroke:#fffcfc;-inkscape-font-specification:Sans"
         id="path7305" />
      <path
         d="m 443.12375,949.52103 21.97913,2.53647 -0.45678,3.9581 -17.27596,-1.9937 -1.18763,10.29107 16.55419,1.91041 -0.45678,3.95811 -16.55419,-1.91042 -1.45363,12.59609 17.69506,2.04207 -0.45678,3.95811 -22.39822,-2.58483 4.01159,-34.76148"
         style="fill:#252525;stroke:#fffcfc;-inkscape-font-specification:Sans"
         id="path7307" />
      <path
         d="m 493.1677,954.59656 -0.19246,4.61318 c -1.75952,-0.9335 -3.42665,-1.64424 -5.00141,-2.13221 -1.5748,-0.48791 -3.10373,-0.76282 -4.58679,-0.82472 -2.5759,-0.10744 -4.5872,0.30909 -6.0339,1.24957 -1.43111,0.94119 -2.18508,2.33285 -2.26193,4.17497 -0.0645,1.54555 0.3472,2.73562 1.23507,3.57021 0.90411,0.81967 2.64182,1.52553 5.21314,2.11758 l 2.83246,0.70461 c 3.50015,0.81851 6.04995,2.11342 7.64941,3.88474 1.61566,1.75638 2.36424,4.05521 2.24573,6.89648 -0.14136,3.38768 -1.38813,5.90821 -3.74032,7.56159 -2.33663,1.65404 -5.69833,2.38955 -10.08512,2.20654 -1.65482,-0.069 -3.41109,-0.32998 -5.26882,-0.78281 -1.84214,-0.45217 -3.74702,-1.08682 -5.71467,-1.90392 l 0.20321,-4.87076 c 1.87526,1.1573 3.72256,2.04758 5.54192,2.67083 1.81934,0.62325 3.61887,0.972 5.39858,1.04625 2.70076,0.11268 4.80703,-0.33116 6.31881,-1.33152 1.51174,-1.00035 2.30865,-2.48404 2.39074,-4.45109 0.0716,-1.71724 -0.40315,-3.08197 -1.42433,-4.09418 -1.0056,-1.01153 -2.70038,-1.80943 -5.08433,-2.3937 l -2.85686,-0.68217 c -3.49888,-0.8497 -6.00543,-2.05679 -7.51965,-3.62128 -1.51423,-1.56446 -2.21565,-3.68148 -2.10428,-6.35105 0.12896,-3.09103 1.31555,-5.48115 3.5598,-7.17035 2.25983,-1.68848 5.30215,-2.45296 9.12696,-2.29342 1.63918,0.0684 3.30342,0.28642 4.99271,0.65399 1.68924,0.36765 3.41135,0.88519 5.16633,1.55264"
         style="fill:#252525;stroke:#fffcfc;-inkscape-font-specification:Sans"
         id="path7309" />
      <path
         d="m 502.47692,953.3647 4.734,-0.0596 0.44028,34.98942 -4.734,0.0596 -0.44028,-34.98942"
         style="fill:#252525;stroke:#fffcfc;-inkscape-font-specification:Sans"
         id="path7311" />
      <path
         d="m 521.0627,956.80285 2.02141,27.13576 5.70295,-0.42483 c 4.81476,-0.35866 8.255,-1.71171 10.32073,-4.05916 2.08125,-2.34859 2.94662,-5.87574 2.59611,-10.58147 -0.34825,-4.67452 -1.72492,-8.01116 -4.13002,-10.00991 -2.39072,-2.01544 -5.99346,-2.84385 -10.80823,-2.48521 l -5.70295,0.42482 m -5.01032,-3.52817 9.69969,-0.72255 c 6.7625,-0.50372 11.83035,0.53674 15.20358,3.12138 3.37201,2.56913 5.28089,6.84539 5.72664,12.82879 0.44801,6.0146 -0.81227,10.55043 -3.78084,13.60752 -2.96863,3.05711 -7.8186,4.83637 -14.54992,5.33781 l -9.69969,0.72255 -2.59946,-34.8955"
         style="fill:#252525;stroke:#fffcfc;-inkscape-font-specification:Sans"
         id="path7313" />
      <path
         d="m 552.22413,949.95147 4.69028,-0.64461 4.76441,34.66632 -4.69028,0.64461 -4.76441,-34.66632"
         style="fill:#252525;stroke:#fffcfc;-inkscape-font-specification:Sans"
         id="path7315" />
      <path
         d="m 565.19217,948.25224 4.66568,-0.93178 4.16315,20.84617 c 0.73439,3.6774 1.9303,6.19507 3.58772,7.55301 1.65434,1.34264 3.97546,1.71561 6.96334,1.1189 2.97254,-0.59363 4.96468,-1.82799 5.97646,-3.70308 1.00866,-1.89038 1.14581,-4.67427 0.41143,-8.35167 l -4.16315,-20.84617 4.66568,-0.93178 4.2779,21.42076 c 0.89349,4.47417 0.45735,8.07461 -1.30843,10.80135 -1.75052,2.72369 -4.78622,4.51699 -9.10712,5.37991 -4.33626,0.86599 -7.84323,0.37931 -10.52092,-1.46003 -2.66237,-1.8424 -4.44032,-5.00067 -5.33384,-9.47483 l -4.2779,-21.42076"
         style="fill:#252525;stroke:#fffcfc;-inkscape-font-specification:Sans"
         id="path7317" />
      <path
         d="m 598.54842,941.37068 6.76166,-2.0121 15.35045,20.27655 1.81205,-25.38366 6.76166,-2.0121 9.98027,33.53874 -4.42541,1.31689 -8.76365,-29.4503 -1.8035,25.57675 -4.56019,1.35699 -15.49378,-20.42952 8.76365,29.4503 -4.40294,1.31021 -9.98027,-33.53875"
         style="fill:#252525;stroke:#fffcfc;-inkscape-font-specification:Sans"
         id="path7319" />
      <path
         d="m 665.10072,921.16191 c -3.13434,1.41153 -5.10145,3.70256 -5.90136,6.8731 -0.78565,3.16419 -0.27063,6.76221 1.54506,10.79409 1.80928,4.01767 4.15896,6.78092 7.04903,8.28976 2.90431,1.50246 5.92363,1.54793 9.05798,0.13642 3.13433,-1.41148 5.0872,-3.6961 5.85863,-6.85386 0.78563,-3.16413 0.27382,-6.75504 -1.53544,-10.77271 -1.81572,-4.03187 -4.1686,-6.80225 -7.05865,-8.31114 -2.87584,-1.51523 -5.88091,-1.56712 -9.01525,-0.15566 m -1.5783,-3.50477 c 4.47355,-2.01454 8.72641,-2.12187 12.75861,-0.32199 4.02576,1.78572 7.17425,5.20028 9.4455,10.24368 2.26479,5.02921 2.73485,9.64996 1.4102,13.86224 -1.33113,4.19807 -4.23345,7.30439 -8.70699,9.31897 -4.48781,2.02101 -8.75172,2.14189 -12.79173,0.36261 -4.02578,-1.78567 -7.17427,-5.20022 -9.4455,-10.24367 -2.27122,-5.04342 -2.74128,-9.66416 -1.41019,-13.86224 1.33893,-4.21869 4.25229,-7.33855 8.7401,-9.3596"
         style="fill:#252525;stroke:#fffcfc;-inkscape-font-specification:Sans"
         id="path7321" />
      <path
         d="m 683.59581,909.00182 6.13058,-3.49065 19.54235,16.27486 -3.98168,-25.13484 6.13058,-3.49064 17.31407,30.40848 -4.01237,2.28458 -15.20345,-26.70163 4.03372,25.32097 -4.13458,2.35416 -19.71659,-16.39141 15.20345,26.70163 -3.99201,2.27298 -17.31407,-30.40849"
         style="fill:#252525;stroke:#fffcfc;-inkscape-font-specification:Sans"
         id="path7323" />
      <path
         d="m 717.85861,888.93528 5.22725,-3.64917 29.47888,15.12166 -16.75666,-24.00309 3.7667,-2.62955 20.03018,28.69225 -5.22726,3.64917 -29.47887,-15.12166 16.75666,24.00309 -3.7667,2.62955 -20.03018,-28.69225"
         style="fill:#252525;stroke:#fffcfc;-inkscape-font-specification:Sans"
         id="path7325" />
      <path
         d="m 746.49855,868.21181 3.71084,-2.94007 21.73029,27.42714 -3.71084,2.94006 -21.73029,-27.42713"
         style="fill:#252525;stroke:#fffcfc;-inkscape-font-specification:Sans"
         id="path7327" />
      <path
         d="m 769.01969,849.39292 16.00147,-15.27968 2.75163,2.88162 -12.57742,12.01009 7.15425,7.49221 12.05196,-11.50832 2.75163,2.88162 -12.05195,11.50832 8.75668,9.17034 12.88254,-12.30144 2.75164,2.88162 -16.30659,15.57103 -24.16584,-25.30741"
         style="fill:#252525;stroke:#fffcfc;-inkscape-font-specification:Sans"
         id="path7329" />
      <path
         d="m 804.94206,814.15314 3.42253,3.09916 c -1.84312,0.75515 -3.45591,1.58181 -4.8384,2.47998 -1.38246,0.89824 -2.57187,1.8975 -3.56823,2.99777 -1.73048,1.91108 -2.69704,3.72341 -2.89971,5.437 -0.19214,1.70206 0.39512,3.17185 1.7618,4.40939 1.14665,1.03832 2.3247,1.48323 3.53416,1.33474 1.20838,-0.17051 2.86258,-1.05453 4.9626,-2.65207 l 2.35361,-1.72624 c 2.86828,-2.16656 5.49474,-3.29791 7.8794,-3.39405 2.38355,-0.11816 4.6293,0.77714 6.73726,2.6859 2.51331,2.27588 3.65296,4.84662 3.41895,7.71223 -0.22355,2.85407 -1.80886,5.90838 -4.75593,9.16295 -1.11172,1.22771 -2.43583,2.41064 -3.97233,3.54878 -1.52603,1.12657 -3.23244,2.18465 -5.11924,3.17423 l -3.61363,-3.2722 c 2.08917,-0.70094 3.95523,-1.55122 5.59817,-2.55085 1.64293,-0.99961 3.06221,-2.1596 4.25783,-3.47997 1.81438,-2.0037 2.82071,-3.9065 3.01899,-5.70841 0.19826,-1.80187 -0.43227,-3.36355 -1.89161,-4.68504 -1.27405,-1.15364 -2.6267,-1.6618 -4.05796,-1.52448 -1.42078,0.12578 -3.11825,0.91792 -5.09242,2.37643 l -2.35196,1.75934 c -2.89144,2.14563 -5.42274,3.29992 -7.59391,3.46286 -2.17114,0.16299 -4.24699,-0.65224 -6.22755,-2.44568 -2.29325,-2.07657 -3.37116,-4.51762 -3.23373,-7.32318 0.14795,-2.81708 1.50667,-5.64445 4.07617,-8.48211 1.10124,-1.21608 2.33347,-2.35574 3.69669,-3.41896 1.36325,-1.06314 2.86273,-2.05565 4.49845,-2.97752"
         style="fill:#252525;stroke:#fffcfc;-inkscape-font-specification:Sans"
         id="path7331" />
      <path
         d="m 806.66401,810.57578 18.24548,-23.30997 3.13753,2.45584 -7.65646,9.7817 24.41733,19.11226 -2.93257,3.74657 -24.41733,-19.11226 -7.65646,9.7817 -3.13752,-2.45584"
         style="fill:#252525;stroke:#fffcfc;-inkscape-font-specification:Sans"
         id="path7333" />
    </g>
    <path
       style="opacity:0.35983264;fill:#ffffff;fill-opacity:1;stroke:none"
       d="m 394.9822,448.63422 -42.0169,104.07792 45.41441,104.87795 103.19229,41.96197 -68.00538,18.54116 c 0,0 -71.6306,11.14405 -107.68414,10.39022 -132.52109,-2.77086 -154.84861,-88.12353 -74.89339,-174.273 24.56381,-26.4668 82.91467,-69.71377 82.91467,-69.71377 z"
       id="path6809"
       inkscape:connector-curvature="0"
       sodipodi:nodetypes="cccccsscc" />
    <path
       style="opacity:0.35983264;fill:#ffffff;fill-opacity:1;stroke:none"
       d="m 500.79758,403.68389 104.07791,42.0169 43.95345,105.49856 -41.44156,103.40238 60.55805,-36.07254 c 0,0 57.75105,-43.81722 82.23911,-70.2891 90.01016,-97.30204 44.08113,-172.6288 -73.43244,-174.8936 -36.10247,-0.6958 -107.73907,11.27585 -107.73907,11.27585 z"
       id="path6809-5"
       inkscape:connector-curvature="0"
       sodipodi:nodetypes="cccccsscc" />
  </g>
</svg>
